<svg version="1.1" id="Layer_1" xmlns="http://www.w3.org/2000/svg" xmlns:xlink="http://www.w3.org/1999/xlink" x="0px" y="0px"
	 width="100%" viewBox="0 0 496 496" enable-background="new 0 0 496 496" xml:space="preserve">
<path fill="#000000" opacity="1.000000" stroke="none" 
	d="
M404.289062,231.742935 
	C397.572845,234.350098 390.681427,233.371368 383.944733,233.211792 
	C375.491760,233.011581 367.744385,235.588898 359.819183,237.700394 
	C358.393860,238.080139 356.860382,238.287933 355.390839,238.228424 
	C348.084290,237.932541 340.781830,237.530746 333.479340,237.140289 
	C332.175293,237.070557 330.865814,236.901550 329.901215,235.286636 
	C333.896149,234.119156 337.695465,234.854797 341.428040,234.723785 
	C345.007080,234.598160 348.593964,234.696655 352.181671,234.162155 
	C343.667572,232.603836 334.926575,234.232178 325.109039,232.300781 
	C328.780243,229.799484 331.961517,231.323074 334.419006,229.261673 
	C328.717621,229.261673 323.016144,229.275558 317.314850,229.255478 
	C314.663605,229.246140 312.059570,229.366486 309.810272,227.320984 
	C308.195679,225.852676 305.967834,225.976944 304.204987,227.131760 
	C302.057526,228.538574 299.750061,228.559952 297.467590,228.328552 
	C292.351105,227.809799 287.260254,227.038361 282.210571,225.850281 
	C286.831482,223.824066 291.654144,225.246750 296.690155,224.333832 
	C296.325562,218.201584 300.732574,216.481094 305.659607,215.536682 
	C312.831726,214.161926 320.012604,212.745499 327.251801,211.846817 
	C330.594635,211.431824 332.038696,210.300705 331.975281,206.955170 
	C331.927490,204.431824 332.364227,202.540833 335.404022,201.175339 
	C338.201508,199.918716 340.541382,196.881683 341.190857,193.565552 
	C342.531219,186.721924 346.820007,184.736938 352.424133,188.672562 
	C353.361359,189.330750 354.539520,189.708145 354.912506,191.050964 
	C355.068726,193.478912 351.748077,193.359833 351.493347,195.750870 
	C351.776581,197.404861 353.206787,198.247879 354.855164,199.219360 
	C362.319733,192.685989 368.766479,184.292419 379.627502,183.155685 
	C381.703888,182.938370 384.667114,183.094711 386.565430,186.642319 
	C378.572693,183.683411 373.056915,187.230774 367.279358,191.139481 
	C360.623688,195.642288 359.574524,201.833984 360.253387,209.303635 
	C364.466370,211.533661 369.024658,209.447632 373.428711,209.358994 
	C383.728943,209.151672 394.017426,208.353531 404.310089,207.784470 
	C406.269226,207.676163 407.898712,208.091904 408.887939,210.033905 
	C409.961365,212.141266 408.698212,213.595505 407.510345,214.936768 
	C404.948364,217.829651 401.386627,219.408661 398.171600,221.581863 
	C406.203735,223.658020 420.566193,222.853302 426.903168,220.011871 
	C426.665588,212.926041 427.837219,211.991272 435.056702,213.864777 
	C438.052063,214.642090 440.826965,214.921982 442.833069,218.616699 
	C444.716187,222.084915 449.900360,221.418411 453.838135,221.852859 
	C457.322388,222.237244 461.024841,221.079132 465.113129,223.422104 
	C451.992004,227.170990 439.653229,230.821228 426.646606,227.535721 
	C422.966675,226.606171 419.829803,228.298553 416.415131,228.531937 
	C406.935486,229.179901 397.461548,229.329605 387.974243,229.377060 
	C387.251892,229.380676 386.324005,229.016617 385.723938,230.268936 
	C391.963654,231.470230 398.313873,229.508911 404.289062,231.742935 
M350.324982,228.397659 
	C346.274750,228.614334 342.115570,227.771729 338.192749,229.477966 
	C342.884491,231.144348 347.519806,230.320663 352.099640,229.349991 
	C352.528809,229.259033 351.580414,228.558487 350.324982,228.397659 
z"/>
<path fill="#000000" opacity="1.000000" stroke="none" 
	d="
M130.488159,173.737305 
	C131.763687,173.676773 132.596237,173.686188 133.425003,173.634644 
	C141.882736,173.108582 149.499985,174.521210 153.618286,183.090454 
	C157.987808,192.182373 156.291550,204.495499 149.905197,211.613541 
	C149.368042,212.212234 148.879227,212.854309 148.330948,213.521240 
	C150.111801,217.644196 154.326263,219.900269 155.806137,224.046127 
	C148.876251,227.028107 142.924576,225.843323 138.747986,220.303680 
	C136.689713,217.573700 134.229507,216.273987 130.976456,215.597321 
	C120.687691,213.457184 115.804840,207.263229 115.631424,196.623749 
	C115.555313,191.954422 115.594910,187.356949 117.754929,182.994507 
	C120.328537,177.796783 124.581177,175.028198 130.488159,173.737305 
M129.067657,201.121262 
	C130.623978,204.979660 133.636063,206.305771 137.468307,205.440720 
	C140.991135,204.645554 142.564148,201.937561 142.742676,198.483826 
	C142.878723,195.851959 142.944977,193.191925 142.722076,190.571671 
	C142.371979,186.456482 140.202820,183.759888 135.888519,183.418823 
	C132.052734,183.115601 129.004257,185.953964 128.431320,190.515900 
	C128.020630,193.785965 127.924500,197.116241 129.067657,201.121262 
z"/>
<path fill="#000000" opacity="1.000000" stroke="none" 
	d="
M103.077293,198.064499 
	C104.653107,203.831192 107.159828,208.935349 108.011833,214.590729 
	C104.402565,215.899826 101.073883,215.251907 97.796051,215.258148 
	C95.952492,215.261658 95.107201,213.899170 94.850426,212.387894 
	C93.992882,207.340851 90.171249,208.223236 86.751251,208.098969 
	C83.557426,207.982895 80.728630,208.146011 80.069801,212.223099 
	C79.698929,214.518265 78.109573,215.530945 75.748955,215.368134 
	C72.965553,215.176193 70.112694,215.843216 67.412506,214.754639 
	C66.386497,212.802597 67.471352,211.082886 67.990570,209.445312 
	C71.250275,199.164368 74.791115,188.970963 77.939178,178.657104 
	C79.115425,174.803452 81.122711,173.478867 85.118660,173.629395 
	C96.252701,174.048813 94.319092,172.147507 98.066467,183.050308 
	C99.738480,187.914932 101.325966,192.808594 103.077293,198.064499 
M89.129662,190.400543 
	C88.541214,188.883209 88.688133,187.095825 87.149757,185.450638 
	C86.447136,188.083817 85.794617,190.449448 85.186089,192.826355 
	C83.911720,197.803970 84.590042,198.360275 90.173210,196.883209 
	C90.845039,194.845535 89.467758,193.063141 89.129662,190.400543 
z"/>
<path fill="#000000" opacity="1.000000" stroke="none" 
	d="
M247.133087,196.044769 
	C248.914627,202.470352 251.624405,208.223175 252.706833,214.509247 
	C249.536102,215.991730 246.513428,215.147125 243.585617,215.330002 
	C241.478455,215.461594 240.002106,214.652603 239.666534,212.416840 
	C239.025467,208.146011 236.003006,207.905655 232.607468,208.098129 
	C229.396133,208.280167 225.680252,207.230148 224.863281,212.126312 
	C224.487289,214.379532 223.018875,215.534088 220.599716,215.357239 
	C217.810944,215.153305 214.969925,215.767349 212.286469,214.948166 
	C211.234787,213.570480 211.827499,212.317947 212.230408,211.073425 
	C215.815475,199.999420 219.472061,188.947845 222.948837,177.839981 
	C223.889542,174.834534 225.465759,173.592743 228.686417,173.655182 
	C242.331085,173.919632 238.735901,172.257507 243.069305,183.842758 
	C244.524048,187.731979 245.709595,191.721893 247.133087,196.044769 
M233.088379,187.815796 
	C232.848328,187.067749 232.608276,186.319687 232.023270,184.496643 
	C231.188339,187.836121 230.587997,190.155563 230.030182,192.485199 
	C228.802887,197.610794 229.291000,198.078278 234.922470,197.077362 
	C235.387131,194.039902 233.832962,191.333099 233.088379,187.815796 
z"/>
<path fill="#000000" opacity="1.000000" stroke="none" 
	d="
M183.423676,205.549835 
	C188.883499,205.968658 190.602417,203.022339 190.636505,198.545258 
	C190.687134,191.895386 190.890198,185.234879 190.597626,178.597900 
	C190.366013,173.343796 193.652054,173.789078 197.099365,173.685486 
	C200.594162,173.580475 202.751404,174.159058 202.549667,178.511215 
	C202.211212,185.812271 202.441986,193.138046 202.336716,200.452042 
	C202.219620,208.587585 198.198257,213.547607 190.396317,215.373352 
	C175.853577,218.776535 166.843872,211.790649 166.762161,197.020432 
	C166.728149,190.869156 166.948059,184.709549 166.694260,178.568527 
	C166.477325,173.319183 169.864227,173.808334 173.288177,173.690796 
	C176.918915,173.566162 179.431900,174.106461 179.274139,178.696945 
	C179.045868,185.338791 179.262817,191.995087 179.232086,198.644943 
	C179.218048,201.680283 179.854889,204.276917 183.423676,205.549835 
z"/>
<path fill="#000000" opacity="1.000000" stroke="none" 
	d="
M113.771187,236.118881 
	C114.062309,233.515045 112.870659,230.659912 116.209282,229.924881 
	C121.339638,228.795395 121.635132,233.775208 123.904755,236.239258 
	C124.182457,236.092194 124.575470,236.019394 124.654449,235.821350 
	C125.461800,233.796997 123.723457,229.819626 127.636772,230.246155 
	C130.933838,230.605515 129.717758,234.193863 129.933060,236.494507 
	C130.117966,238.470581 130.032806,240.479904 129.954956,242.470123 
	C129.889969,244.131699 129.859207,245.969604 127.604111,246.237289 
	C125.600067,246.475174 123.582855,246.606995 122.421410,244.347549 
	C121.440643,242.439621 120.367615,240.579102 118.763664,237.655396 
	C118.576141,240.184570 118.482605,241.690948 118.347588,243.193619 
	C118.228905,244.514374 118.252213,246.032715 116.375748,246.079330 
	C114.367706,246.129227 113.935745,244.654099 113.868469,243.062714 
	C113.777306,240.906311 113.798325,238.745163 113.771187,236.118881 
z"/>
<path fill="#000000" opacity="1.000000" stroke="none" 
	d="
M190.738281,246.492401 
	C187.341675,246.564255 184.550705,245.892044 183.498260,242.716446 
	C182.226242,238.878311 182.271774,234.879684 183.376678,230.989441 
	C183.658875,229.995850 184.911865,229.824982 185.960938,230.000671 
	C187.871399,230.320572 188.026306,231.788589 188.233017,233.342880 
	C188.596451,236.075714 187.317642,239.190308 189.761856,241.889297 
	C192.905746,239.630997 191.431015,236.745041 191.741974,234.341568 
	C191.997589,232.365982 191.627548,230.002701 194.522308,229.978561 
	C197.466232,229.953995 197.175110,232.350220 197.268219,234.319855 
	C197.674500,242.914474 196.743378,244.745026 190.738281,246.492401 
z"/>
<path fill="#000000" opacity="1.000000" stroke="none" 
	d="
M161.946243,246.266754 
	C160.146088,246.180496 157.558350,245.931061 159.165161,244.106079 
	C163.309998,239.398392 161.971329,235.215698 158.587524,231.047531 
	C162.498474,228.238266 164.037033,231.525558 166.098038,233.165543 
	C168.033859,231.214203 169.506561,228.488998 173.466949,230.730576 
	C170.358398,235.488510 168.340027,240.613083 174.237213,245.156815 
	C169.710739,246.562668 169.710739,246.562668 166.015488,243.197174 
	C164.373337,243.696228 164.196320,246.033295 161.946243,246.266754 
z"/>
<path fill="#000000" opacity="1.000000" stroke="none" 
	d="
M206.759338,234.859985 
	C207.310059,230.667572 209.996094,229.702393 213.252106,229.765778 
	C215.172562,229.803146 217.715439,229.758926 217.756516,232.422104 
	C217.798950,235.173019 215.331848,234.889496 212.087753,234.162247 
	C215.938400,237.113358 219.644379,238.840179 217.771347,243.199402 
	C216.228027,246.791321 212.880737,246.671478 209.643005,246.414780 
	C206.947205,246.201050 206.315689,244.673187 207.017822,242.333771 
	C208.257614,240.753052 210.284943,242.554657 211.751709,241.023636 
	C209.670425,239.430130 207.070892,238.270370 206.759338,234.859985 
z"/>
<path fill="#000000" opacity="1.000000" stroke="none" 
	d="
M144.047348,246.351654 
	C141.159332,246.422562 139.828888,245.341064 139.821976,242.816620 
	C139.815567,240.484100 139.748734,238.151428 139.764297,235.819214 
	C139.802536,230.094208 140.499695,229.427856 146.067932,229.767502 
	C147.696152,229.866821 149.713608,229.609207 150.006165,231.876511 
	C150.363464,234.645828 147.866425,234.230820 145.844711,234.713730 
	C147.154922,236.136810 149.976181,235.481537 149.585205,238.118744 
	C149.301056,240.035538 147.726135,240.224503 145.933350,240.570923 
	C147.093445,242.524414 151.113617,241.784821 149.849182,244.892105 
	C148.874557,247.287170 146.352585,246.043900 144.047348,246.351654 
z"/>
</svg>